PathFileType	4	(X/Y/Z)	C:\Users\86182\Documents\cortex\Trimmed_M4_L11.trc
DataRate	CameraRate	NumFrames	NumMarkers	Units	OrigDataRate	OrigDataStartFrame	OrigNumFrames
100.00	100.00	       154	2	mm	100.00	721	       901
Frame#	Time	gripper			box			
		X1	Y1	Z1	X2	Y2	Z2	

721	7.200	274.56863	150.42575	292.49023	276.63116	147.64680	155.63947	
722	7.210	274.57120	150.42601	292.48999	276.63077	147.64682	155.63873	
723	7.220	274.57422	150.42618	292.48965	276.63058	147.64684	155.63832	
724	7.230	274.57709	150.42619	292.48929	276.63065	147.64684	155.63835	
725	7.240	274.57944	150.42610	292.48895	276.63095	147.64682	155.63885	
726	7.250	274.58121	150.42606	292.48871	276.63141	147.64680	155.63963	
727	7.260	274.58246	150.42619	292.48859	276.63181	147.64677	155.64038	
728	7.270	274.58304	150.42650	292.48862	276.63193	147.64676	155.64076	
729	7.280	274.58270	150.42691	292.48880	276.63171	147.64676	155.64061	
730	7.290	274.58139	150.42732	292.48914	276.63116	147.64677	155.63994	
731	7.300	274.57928	150.42761	292.48953	276.63043	147.64679	155.63899	
732	7.310	274.57669	150.42772	292.48990	276.62970	147.64682	155.63802	
733	7.320	274.57407	150.42763	292.49023	276.62906	147.64684	155.63719	
734	7.330	274.57196	150.42743	292.49042	276.62863	147.64685	155.63655	
735	7.340	274.57077	150.42728	292.49054	276.62839	147.64687	155.63609	
736	7.350	274.57068	150.42725	292.49054	276.62833	147.64688	155.63574	
737	7.360	274.57147	150.42731	292.49045	276.62848	147.64691	155.63545	
738	7.370	274.57278	150.42735	292.49030	276.62878	147.64694	155.63515	
739	7.380	274.57413	150.42726	292.49008	276.62930	147.64697	155.63478	
740	7.390	274.57513	150.42699	292.48987	276.62991	147.64703	155.63435	
741	7.400	274.57574	150.42656	292.48962	276.63062	147.64708	155.63391	
742	7.410	274.57632	150.42610	292.48935	276.63120	147.64713	155.63358	
743	7.420	274.57727	150.42574	292.48907	276.63153	147.64714	155.63348	
744	7.430	274.57898	150.42552	292.48877	276.63156	147.64713	155.63373	
745	7.440	274.58148	150.42540	292.48840	276.63129	147.64709	155.63431	
746	7.450	274.58450	150.42529	292.48798	276.63089	147.64703	155.63512	
747	7.460	274.58734	150.42519	292.48755	276.63049	147.64697	155.63597	
748	7.470	274.58939	150.42516	292.48727	276.63016	147.64691	155.63673	
749	7.480	274.59018	150.42538	292.48724	276.62991	147.64688	155.63727	
750	7.490	274.58966	150.42593	292.48752	276.62964	147.64685	155.63748	
751	7.500	274.58804	150.42676	292.48804	276.62933	147.64685	155.63736	
752	7.510	274.58575	150.42767	292.48871	276.62903	147.64685	155.63705	
753	7.520	274.58334	150.42851	292.48932	276.62875	147.64685	155.63669	
754	7.530	274.58127	150.42920	292.48987	276.62854	147.64687	155.63637	
755	7.540	274.57968	150.42972	292.49026	276.62845	147.64687	155.63617	
756	7.550	274.57864	150.43008	292.49054	276.62845	147.64687	155.63611	
757	7.560	274.57809	150.43033	292.49072	276.62854	147.64687	155.63620	
758	7.570	274.57785	150.43045	292.49078	276.62875	147.64687	155.63646	
759	7.580	274.57773	150.43051	292.49084	276.62906	147.64685	155.63684	
760	7.590	274.57758	150.43053	292.49084	276.62939	147.64685	155.63733	
761	7.600	274.57739	150.43050	292.49088	276.62973	147.64684	155.63780	
762	7.610	274.57724	150.43037	292.49084	276.62997	147.64682	155.63812	
763	7.620	274.57724	150.43016	292.49078	276.62997	147.64682	155.63814	
764	7.630	274.57742	150.42987	292.49063	276.62979	147.64684	155.63786	
765	7.640	274.57779	150.42953	292.49045	276.62949	147.64685	155.63744	
766	7.650	274.57831	150.42928	292.49030	276.62918	147.64685	155.63701	
767	7.660	274.57870	150.42917	292.49020	276.62900	147.64687	155.63675	
768	7.670	274.57877	150.42923	292.49023	276.62894	147.64687	155.63667	
769	7.680	274.57837	150.42938	292.49033	276.62903	147.64687	155.63681	
770	7.690	274.57770	150.42950	292.49048	276.62924	147.64685	155.63713	
771	7.700	274.57697	150.42949	292.49057	276.62955	147.64684	155.63754	
772	7.710	274.57642	150.42934	292.49057	276.62979	147.64684	155.63789	
773	7.720	274.57632	150.42908	292.49048	276.62988	147.64682	155.63800	
774	7.730	274.57678	150.42885	292.49033	276.62973	147.64684	155.63780	
775	7.740	274.57779	150.42873	292.49014	276.62943	147.64684	155.63737	
776	7.750	274.57895	150.42876	292.48999	276.62915	147.64685	155.63695	
777	7.760	274.57983	150.42894	292.48993	276.62897	147.64687	155.63670	
778	7.770	274.58029	150.42923	292.48999	276.62903	147.64687	155.63678	
779	7.780	274.58044	150.42950	292.49011	276.62930	147.64685	155.63721	
780	7.790	274.58054	150.42973	292.49017	276.62988	147.64682	155.63803	
781	7.800	274.58063	150.42987	292.49020	276.63071	147.64679	155.63921	
782	7.810	274.58075	150.42995	292.49020	276.63162	147.64676	155.64052	
783	7.820	274.58081	150.42999	292.49023	276.63242	147.64673	155.64169	
784	7.830	274.58066	150.43004	292.49026	276.63287	147.64671	155.64236	
785	7.840	274.58017	150.43011	292.49036	276.63290	147.64671	155.64241	
786	7.850	274.57938	150.43018	292.49048	276.63257	147.64673	155.64191	
787	7.860	274.57834	150.43019	292.49063	276.63199	147.64674	155.64107	
788	7.870	274.57712	150.43008	292.49075	276.63129	147.64677	155.64008	
789	7.880	274.57578	150.42984	292.49084	276.63062	147.64680	155.63907	
790	7.890	274.57431	150.42946	292.49088	276.62994	147.64682	155.63811	
791	7.900	274.57281	150.42896	292.49088	276.62936	147.64685	155.63727	
792	7.910	274.57141	150.42844	292.49084	276.62891	147.64687	155.63661	
793	7.920	274.57031	150.42802	292.49084	276.62857	147.64688	155.63615	
794	7.930	274.56976	150.42786	292.49088	276.62839	147.64690	155.63588	
795	7.940	274.57001	150.42807	292.49091	276.62827	147.64691	155.63574	
796	7.950	274.57095	150.42859	292.49100	276.62820	147.64693	155.63568	
797	7.960	274.57233	150.42929	292.49109	276.62820	147.64693	155.63570	
798	7.970	274.57385	150.42993	292.49112	276.62820	147.64694	155.63573	
799	7.980	274.57532	150.43036	292.49109	276.62823	147.64694	155.63577	
800	7.990	274.57669	150.43044	292.49094	276.62830	147.64693	155.63582	
801	8.000	274.57797	150.43008	292.49066	276.62839	147.64688	155.63586	
802	8.010	274.57922	150.42926	292.49017	276.62857	147.64679	155.63593	
803	8.020	274.58044	150.42799	292.48953	276.62878	147.64665	155.63599	
804	8.030	274.58139	150.42638	292.48880	276.62909	147.64645	155.63608	
805	8.040	274.58170	150.42462	292.48810	276.62949	147.64621	155.63618	
806	8.050	274.58078	150.42297	292.48758	276.62988	147.64595	155.63629	
807	8.060	274.57816	150.42151	292.48737	276.63022	147.64575	155.63637	
808	8.070	274.57385	150.42030	292.48749	276.63028	147.64571	155.63638	
809	8.080	274.56888	150.41957	292.48785	276.63007	147.64583	155.63632	
810	8.090	274.56467	150.41954	292.48840	276.62961	147.64612	155.63620	
811	8.100	274.56216	150.42026	292.48901	276.62912	147.64642	155.63606	
812	8.110	274.56146	150.42149	292.48956	276.62869	147.64670	155.63597	
813	8.120	274.56186	150.42279	292.49002	276.62848	147.64685	155.63594	
814	8.130	274.56259	150.42380	292.49030	276.62851	147.64685	155.63600	
815	8.140	274.56320	150.42436	292.49042	276.62891	147.64665	155.63618	
816	8.150	274.56366	150.42455	292.49045	276.62967	147.64622	155.63651	
817	8.160	274.56403	150.42447	292.49036	276.63089	147.64552	155.63696	
818	8.170	274.56421	150.42421	292.49023	276.63245	147.64459	155.63753	
819	8.180	274.56430	150.42386	292.49011	276.63419	147.64354	155.63811	
820	8.190	274.56436	150.42361	292.48999	276.63568	147.64262	155.63857	
821	8.200	274.56427	150.42345	292.48996	276.63638	147.64220	155.63878	
822	8.210	274.56363	150.42310	292.48993	276.63599	147.64247	155.63866	
823	8.220	274.56210	150.42232	292.48981	276.63477	147.64328	155.63824	
824	8.230	274.55978	150.42113	292.48969	276.63330	147.64430	155.63765	
825	8.240	274.55698	150.41971	292.48950	276.63196	147.64528	155.63695	
826	8.250	274.55405	150.41830	292.48938	276.63098	147.64606	155.63618	
827	8.260	274.55136	150.41719	292.48932	276.63046	147.64664	155.63545	
828	8.270	274.54944	150.41653	292.48932	276.63028	147.64700	155.63481	
829	8.280	274.54852	150.41641	292.48938	276.63028	147.64722	155.63435	
830	8.290	274.54868	150.41678	292.48950	276.63031	147.64729	155.63409	
831	8.300	274.54984	150.41757	292.48962	276.63031	147.64729	155.63403	
832	8.310	274.55176	150.41869	292.48981	276.63016	147.64723	155.63419	
833	8.320	274.55383	150.41982	292.48996	276.62988	147.64716	155.63448	
834	8.330	274.55536	150.42059	292.49005	276.62949	147.64708	155.63486	
835	8.340	274.55579	150.42076	292.49005	276.62912	147.64700	155.63522	
836	8.350	274.55493	150.42020	292.48999	276.62881	147.64694	155.63551	
837	8.360	274.55328	150.41910	292.48978	276.62860	147.64690	155.63574	
838	8.370	274.55179	150.41795	292.48953	276.62845	147.64688	155.63588	
839	8.380	274.55182	150.41739	292.48932	276.62836	147.64687	155.63596	
840	8.390	274.55423	150.41788	292.48920	276.62833	147.64687	155.63599	
841	8.400	274.55878	150.41937	292.48914	276.62833	147.64687	155.63599	
842	8.410	274.56439	150.42137	292.48917	276.62836	147.64687	155.63597	
843	8.420	274.56992	150.42325	292.48914	276.62836	147.64687	155.63596	
844	8.430	274.57443	150.42459	292.48901	276.62839	147.64688	155.63594	
845	8.440	274.57730	150.42520	292.48889	276.62839	147.64688	155.63593	
846	8.450	274.57816	150.42514	292.48877	276.62842	147.64688	155.63591	
847	8.460	274.57700	150.42464	292.48871	276.62842	147.64688	155.63591	
848	8.470	274.57425	150.42395	292.48883	276.62842	147.64688	155.63591	
849	8.480	274.57077	150.42331	292.48904	276.62842	147.64688	155.63589	
850	8.490	274.56717	150.42273	292.48929	276.62842	147.64688	155.63589	
851	8.500	274.56366	150.42212	292.48953	276.62842	147.64688	155.63589	
852	8.510	274.56027	150.42139	292.48969	276.62842	147.64688	155.63589	
853	8.520	274.55710	150.42053	292.48981	276.62842	147.64688	155.63589	
854	8.530	274.55444	150.41968	292.48984	276.62842	147.64688	155.63589	
855	8.540	274.55273	150.41907	292.48981	276.62842	147.64688	155.63589	
856	8.550	274.55249	150.41895	292.48981	276.62842	147.64688	155.63591	
857	8.560	274.55405	150.41951	292.48981	276.62842	147.64688	155.63591	
858	8.570	274.55722	150.42070	292.48984	276.62842	147.64688	155.63591	
859	8.580	274.56128	150.42218	292.48987	276.62842	147.64688	155.63591	
860	8.590	274.56516	150.42352	292.48987	276.62842	147.64688	155.63591	
861	8.600	274.56793	150.42436	292.48981	276.62842	147.64688	155.63591	
862	8.610	274.56903	150.42451	292.48975	276.62842	147.64688	155.63591	
863	8.620	274.56839	150.42400	292.48962	276.62842	147.64688	155.63591	
864	8.630	274.56647	150.42299	292.48950	276.62839	147.64688	155.63591	
865	8.640	274.56415	150.42194	292.48938	276.62839	147.64688	155.63593	
866	8.650	274.56247	150.42128	292.48938	276.62836	147.64688	155.63594	
867	8.660	274.56204	150.42123	292.48941	276.62836	147.64688	155.63596	
868	8.670	274.56284	150.42174	292.48950	276.62833	147.64687	155.63597	
869	8.680	274.56418	150.42250	292.48956	276.62833	147.64687	155.63597	
870	8.690	274.56528	150.42319	292.48969	276.62836	147.64688	155.63596	
871	8.700	274.56543	150.42354	292.48981	276.62842	147.64688	155.63589	
872	8.710	274.56424	150.42336	292.48990	276.62854	147.64690	155.63580	
873	8.720	274.56177	150.42256	292.48993	276.62878	147.64691	155.63562	
874	8.730	274.55847	150.42130	292.48990	276.62909	147.64694	155.63538	
